<?xml version="1.0" encoding="iso-8859-1"?>
<!-- Generator: Adobe Illustrator 19.0.0, SVG Export Plug-In . SVG Version: 6.00 Build 0)  -->
<svg version="1.1" id="Capa_1" xmlns="http://www.w3.org/2000/svg" xmlns:xlink="http://www.w3.org/1999/xlink" x="0px" y="0px"
	 viewBox="0 0 480 480" style="enable-background:new 0 0 480 480;" xml:space="preserve">
<path id="XMLID_498_" d="M340,140c0,38.598,31.402,70,70,70s70-31.402,70-70s-31.402-70-70-70S340,101.402,340,140z M410,90
	c27.57,0,50,22.43,50,50s-22.43,50-50,50s-50-22.43-50-50S382.43,90,410,90z M460.151,300H359.498c0.329-1.616,0.502-3.288,0.502-5
	c0-12.376-9.039-22.681-20.863-24.658c-7.195-20.599-20.517-37.993-37.541-50.329c0.572-0.617,1.075-1.316,1.49-2.093
	C310.88,203.332,315,186.827,315,170.188c0-55.92-45.494-101.415-101.415-101.415c-38.338,0-73.39,21.938-90.492,55.614
	c-10.367-4.745-21.655-7.217-33.187-7.217C45.846,117.17,10,153.016,10,197.076c0,12.246,2.827,24.336,8.214,35.274
	C12.761,244.997,10,258.431,10,272.358c0,9.735,1.352,19.248,4.03,28.419c-5.086,1.396-9.391,4.604-11.874,9.046
	c-3.003,5.371-2.862,11.723,0.376,16.992l74.932,121.889C89.331,468.008,112.822,480,138.769,480h202.463
	c25.946,0,49.437-11.992,61.305-31.296l74.933-121.89c3.237-5.268,3.378-11.62,0.375-16.991
	C474.455,303.764,467.675,300,460.151,300z M322.019,282.625c1.185,4.354,5.138,7.375,9.649,7.375H335c2.757,0,5,2.243,5,5
	s-2.243,5-5,5h-0.131H145c-2.757,0-5-2.243-5-5s2.243-5,5-5h3.331c4.512,0,8.465-3.021,9.649-7.375
	c9.149-33.627,38.008-58.006,72.036-62.037c0.305,5.249,4.658,9.412,9.983,9.412c5.325,0,9.679-4.163,9.983-9.412
	C284.012,224.619,312.87,248.998,322.019,282.625z M38.029,227.017C32.777,217.939,30,207.586,30,197.076
	c0-33.032,26.873-59.906,59.905-59.906c11.576,0,22.821,3.322,32.519,9.607c2.546,1.649,5.702,2.057,8.586,1.1
	c2.881-0.955,5.172-3.167,6.228-6.012c11.787-31.756,42.468-53.092,76.347-53.092c44.893,0,81.415,36.522,81.415,81.415
	c0,13.362-3.304,26.608-9.555,38.307c-0.271,0.509-0.495,1.032-0.672,1.562c-10.794-5.104-22.526-8.407-34.773-9.58V190
	c0-5.523-4.478-10-10-10c-5.522,0-10,4.477-10,10v10.477c-40.62,3.89-75.644,31.236-89.137,69.865
	C129.039,272.319,120,282.624,120,295c0,1.712,0.173,3.384,0.502,5H34.807C31.614,291.173,30,281.902,30,272.358
	c0-12.591,2.808-24.675,8.345-35.914C39.821,233.447,39.703,229.909,38.029,227.017z M385.499,438.229
	C377.368,451.455,359.992,460,341.231,460H138.769c-18.761,0-36.137-8.545-44.268-21.771L21.82,320h6.051
	c0.146,0.003,0.295,0.003,0.441,0H458.18L385.499,438.229z M400,160c0-5.523,4.478-10,10-10c5.514,0,10-4.486,10-10
	c0-5.523,4.478-10,10-10s10,4.477,10,10c0,16.542-13.458,30-30,30C404.478,170,400,165.523,400,160z M229,270
	c0,5.523-4.478,10-10,10h-2c-5.522,0-10-4.477-10-10s4.478-10,10-10h2C224.522,260,229,264.477,229,270z M251,270
	c0-5.523,4.478-10,10-10h2c5.522,0,10,4.477,10,10s-4.478,10-10,10h-2C255.477,280,251,275.523,251,270z M50,200
	c0-22.056,17.944-40,40-40c5.522,0,10,4.477,10,10s-4.478,10-10,10c-11.028,0-20,8.972-20,20c0,5.523-4.478,10-10,10
	C54.478,210,50,205.523,50,200z M335,70c19.299,0,35-15.701,35-35S354.299,0,335,0c-19.299,0-35,15.701-35,35S315.701,70,335,70z
	 M335,20c8.271,0,15,6.729,15,15s-6.729,15-15,15c-8.271,0-15-6.729-15-15S326.729,20,335,20z"/>
<g>
</g>
<g>
</g>
<g>
</g>
<g>
</g>
<g>
</g>
<g>
</g>
<g>
</g>
<g>
</g>
<g>
</g>
<g>
</g>
<g>
</g>
<g>
</g>
<g>
</g>
<g>
</g>
<g>
</g>
</svg>
