<svg xmlns="http://www.w3.org/2000/svg" height="798pt" version="1.1" viewBox="0 -92 798.75015 798" width="798pt">
<g id="surface1">
<path d="M 729.621094 0.375 L 69.125 0.375 C 31.007812 0.375 0 31.382812 0 69.492188 L 0 353.664062 C 0 354.425781 0.0429688 355.1875 0.117188 355.9375 C 0.152344 356.351562 0.230469 356.757812 0.292969 357.160156 C 0.339844 357.492188 0.375 357.820312 0.445312 358.148438 C 0.542969 358.636719 0.667969 359.109375 0.800781 359.59375 C 0.863281 359.832031 0.910156 360.070312 0.980469 360.300781 C 1.125 360.789062 1.300781 361.265625 1.480469 361.734375 C 1.566406 361.957031 1.636719 362.183594 1.726562 362.394531 C 1.90625 362.851562 2.121094 363.277344 2.335938 363.707031 C 2.449219 363.945312 2.554688 364.191406 2.675781 364.417969 C 2.882812 364.816406 3.117188 365.191406 3.34375 365.570312 C 3.496094 365.828125 3.652344 366.097656 3.8125 366.34375 C 4.042969 366.6875 4.289062 367.007812 4.527344 367.339844 C 4.730469 367.613281 4.925781 367.886719 5.136719 368.148438 C 5.382812 368.457031 5.640625 368.734375 5.902344 369.023438 C 6.097656 369.242188 6.273438 369.46875 6.484375 369.683594 L 236.890625 607.769531 C 236.933594 607.816406 236.988281 607.855469 237.03125 607.894531 C 237.347656 608.222656 237.679688 608.519531 238.015625 608.824219 C 238.242188 609.027344 238.460938 609.246094 238.695312 609.433594 C 239.089844 609.769531 239.507812 610.074219 239.933594 610.378906 C 240.117188 610.515625 240.296875 610.664062 240.484375 610.792969 C 244.179688 613.316406 248.640625 614.789062 253.449219 614.789062 L 545.300781 614.789062 C 550.109375 614.789062 554.570312 613.316406 558.265625 610.792969 C 558.453125 610.664062 558.632812 610.515625 558.816406 610.378906 C 559.242188 610.074219 559.660156 609.769531 560.054688 609.433594 C 560.289062 609.246094 560.507812 609.027344 560.734375 608.824219 C 561.070312 608.519531 561.402344 608.222656 561.71875 607.894531 C 561.761719 607.855469 561.816406 607.816406 561.859375 607.769531 L 792.265625 369.683594 C 792.472656 369.46875 792.652344 369.242188 792.847656 369.023438 C 793.105469 368.734375 793.367188 368.457031 793.613281 368.148438 C 793.828125 367.886719 794.019531 367.609375 794.222656 367.339844 C 794.460938 367.007812 794.707031 366.6875 794.933594 366.34375 C 795.097656 366.097656 795.25 365.828125 795.40625 365.570312 C 795.636719 365.195312 795.867188 364.816406 796.074219 364.417969 C 796.195312 364.191406 796.296875 363.945312 796.414062 363.707031 C 796.628906 363.277344 796.835938 362.851562 797.023438 362.394531 C 797.113281 362.183594 797.183594 361.957031 797.269531 361.734375 C 797.445312 361.265625 797.625 360.789062 797.769531 360.300781 C 797.84375 360.070312 797.890625 359.832031 797.949219 359.59375 C 798.078125 359.109375 798.210938 358.636719 798.304688 358.148438 C 798.371094 357.820312 798.410156 357.492188 798.457031 357.160156 C 798.515625 356.757812 798.597656 356.351562 798.632812 355.9375 C 798.707031 355.179688 798.75 354.425781 798.75 353.664062 L 798.75 69.492188 C 798.746094 31.382812 767.738281 0.375 729.621094 0.375 Z M 591.378906 215.417969 C 578.675781 215.417969 568.339844 205.085938 568.339844 192.375 L 568.339844 177.019531 C 568.339844 164.3125 578.675781 153.976562 591.378906 153.976562 L 614.417969 153.976562 L 614.417969 215.417969 Z M 660.496094 153.976562 L 752.660156 153.976562 L 752.660156 215.417969 L 660.496094 215.417969 Z M 69.125 46.449219 L 729.621094 46.449219 C 742.324219 46.449219 752.660156 56.785156 752.660156 69.492188 L 752.660156 107.898438 L 591.378906 107.898438 C 553.261719 107.898438 522.253906 138.902344 522.253906 177.019531 L 522.253906 192.375 C 522.253906 230.492188 553.261719 261.5 591.378906 261.5 L 752.660156 261.5 L 752.660156 330.625 L 637.460938 330.625 C 573.941406 330.625 522.253906 382.300781 522.253906 445.824219 L 522.253906 568.710938 L 276.484375 568.710938 L 276.484375 445.824219 C 276.484375 382.300781 224.804688 330.625 161.28125 330.625 L 46.082031 330.625 L 46.082031 261.5 L 207.367188 261.5 C 245.480469 261.5 276.484375 230.492188 276.484375 192.375 L 276.484375 177.019531 C 276.484375 138.902344 245.480469 107.898438 207.367188 107.898438 L 46.082031 107.898438 L 46.082031 69.492188 C 46.082031 56.785156 56.414062 46.449219 69.125 46.449219 Z M 721.347656 376.707031 L 568.339844 534.8125 L 568.339844 445.824219 C 568.339844 407.710938 599.34375 376.707031 637.460938 376.707031 Z M 230.40625 534.8125 L 77.398438 376.707031 L 161.28125 376.707031 C 199.398438 376.707031 230.40625 407.710938 230.40625 445.824219 Z M 46.082031 153.976562 L 138.246094 153.976562 L 138.246094 215.417969 L 46.082031 215.417969 Z M 207.367188 153.976562 C 220.070312 153.976562 230.40625 164.3125 230.40625 177.019531 L 230.40625 192.375 C 230.40625 205.085938 220.070312 215.417969 207.367188 215.417969 L 184.320312 215.417969 L 184.320312 153.976562 Z M 207.367188 153.976562 " style=" stroke:none;fill-rule:nonzero;fill-opacity:1;" />
</g>
</svg>