<svg xmlns="http://www.w3.org/2000/svg" height="800pt" version="1.1" viewBox="-162 0 800 800" width="800pt">
<g id="surface1">
<path d="M 423.078125 263.28125 L 423.078125 246.152344 C 423.078125 203.742188 388.570312 169.234375 346.152344 169.234375 C 329.1875 169.234375 315.386719 155.425781 315.386719 138.46875 L 315.386719 76.921875 C 315.386719 34.511719 280.878906 0 238.46875 0 C 196.046875 0 161.53125 34.511719 161.53125 76.921875 L 161.53125 138.46875 C 161.53125 155.425781 147.734375 169.234375 130.765625 169.234375 C 88.355469 169.234375 53.847656 203.742188 53.847656 246.152344 L 53.847656 263.28125 C 23.050781 270.304688 0 297.882812 0 330.765625 L 0 338.46875 C 0 371.34375 23.050781 398.929688 53.847656 405.945312 L 53.847656 730.765625 C 53.847656 768.945312 84.90625 800 123.078125 800 L 353.847656 800 C 392.023438 800 423.078125 768.945312 423.078125 730.765625 L 423.078125 405.945312 C 453.867188 398.929688 476.921875 371.34375 476.921875 338.46875 L 476.921875 330.765625 C 476.921875 297.882812 453.867188 270.304688 423.078125 263.28125 Z M 100 246.152344 C 100 229.1875 113.796875 215.386719 130.765625 215.386719 C 173.1875 215.386719 207.691406 180.878906 207.691406 138.46875 L 207.691406 76.921875 C 207.691406 59.957031 221.492188 46.152344 238.46875 46.152344 C 255.425781 46.152344 269.234375 59.957031 269.234375 76.921875 L 269.234375 138.46875 C 269.234375 180.878906 303.742188 215.386719 346.152344 215.386719 C 363.125 215.386719 376.921875 229.1875 376.921875 246.152344 L 376.921875 261.53125 L 100 261.53125 Z M 353.847656 753.847656 L 123.078125 753.847656 C 110.351562 753.847656 100 743.496094 100 730.765625 L 100 407.691406 L 376.921875 407.691406 L 376.921875 446.152344 L 315.386719 446.152344 C 302.640625 446.152344 292.308594 456.488281 292.308594 469.234375 C 292.308594 481.976562 302.640625 492.308594 315.386719 492.308594 L 376.921875 492.308594 L 376.921875 553.847656 L 315.386719 553.847656 C 302.640625 553.847656 292.308594 564.179688 292.308594 576.921875 C 292.308594 589.667969 302.640625 600 315.386719 600 L 376.921875 600 L 376.921875 669.234375 L 315.386719 669.234375 C 302.640625 669.234375 292.308594 679.566406 292.308594 692.308594 C 292.308594 705.054688 302.640625 715.386719 315.386719 715.386719 L 376.921875 715.386719 L 376.921875 730.765625 C 376.921875 743.496094 366.570312 753.847656 353.847656 753.847656 Z M 430.765625 338.46875 C 430.765625 351.179688 420.414062 361.53125 407.691406 361.53125 L 69.234375 361.53125 C 56.503906 361.53125 46.152344 351.179688 46.152344 338.46875 L 46.152344 330.765625 C 46.152344 318.042969 56.503906 307.691406 69.234375 307.691406 L 407.691406 307.691406 C 420.414062 307.691406 430.765625 318.042969 430.765625 330.765625 Z M 430.765625 338.46875 " style=" stroke:none;fill-rule:nonzero;fill-opacity:1;" />
</g>
</svg>