<?xml version="1.0" encoding="iso-8859-1"?>
<!-- Generator: Adobe Illustrator 16.0.0, SVG Export Plug-In . SVG Version: 6.00 Build 0)  -->
<!DOCTYPE svg PUBLIC "-//W3C//DTD SVG 1.1//EN" "http://www.w3.org/Graphics/SVG/1.1/DTD/svg11.dtd">
<svg version="1.1" id="Capa_1" xmlns="http://www.w3.org/2000/svg" xmlns:xlink="http://www.w3.org/1999/xlink" x="0px" y="0px"
	 width="386.588px" height="386.588px" viewBox="0 0 386.588 386.588" style="enable-background:new 0 0 386.588 386.588;"
	 xml:space="preserve">
<g>
	<path d="M337.168,165.729c-18.548-51.161-64.685-88.424-118.593-97.445c-0.889-0.332-1.851-0.584-2.94-0.648
		c-0.688-0.037-1.395-0.031-2.089-0.064c-6.661-0.889-13.408-1.446-20.252-1.446c-64.394,0-122.487,40.594-143.875,99.604
		C22.116,166.04,0,188.344,0,215.727c0,27.377,22.116,49.688,49.419,49.998c21.388,59.004,79.481,99.6,143.875,99.6
		c64.393,0,122.489-40.596,143.874-99.605c27.304-0.311,49.42-22.621,49.42-49.992C386.588,188.35,364.472,166.04,337.168,165.729z
		 M336.583,247.019c-1.352,0-2.825-0.128-4.64-0.384l-7.952-1.169l-2.345,7.685c-16.775,55.033-69.556,93.469-128.353,93.469
		c-58.794,0-111.575-38.436-128.354-93.469l-2.345-7.685l-7.949,1.169c-1.814,0.268-3.294,0.384-4.64,0.384
		c-17.259,0-31.301-14.042-31.301-31.304c0-17.258,14.042-31.293,31.301-31.293c1.364,0,2.875,0.131,4.613,0.387l7.971,1.185
		l2.351-7.706c11.38-37.305,39.32-66.929,74.443-82.182c-7.843,17.366,2.807,38.779,20.557,47.133
		c22.119,10.406,57.905,11.767,72.994-10.875c6.808-10.199,0.768-23.102-7.465-30.083c-11.521-9.773-28.254-11.161-41.933-5.729
		c-11.073,4.393-6.253,22.49,4.975,18.036c8.132-3.222,15.536-3.465,23.343,0.818c10.704,5.886,0.84,12.608-6.644,14.757
		c-13.95,4.01-34.532,0.737-45.438-9.051c-13.768-12.358,3.964-26.382,14.94-30.224c11.898-4.165,24.962-5.088,37.555-4.634
		c50.893,7.24,94.431,43.004,109.386,92.034l2.35,7.706l7.971-1.185c1.736-0.256,3.246-0.387,4.609-0.387
		c17.264,0,31.305,14.035,31.305,31.293C367.888,232.977,353.84,247.019,336.583,247.019z"/>
	<path d="M170.834,207.001c-5.164,0-9.353,4.188-9.353,9.353l0,0c0,9.968-8.104,18.066-18.069,18.066s-18.069-8.104-18.069-18.066
		l0,0c0-5.164-4.189-9.353-9.353-9.353s-9.353,4.188-9.353,9.353c0,20.277,16.499,36.772,36.775,36.772s36.775-16.495,36.775-36.772
		C180.187,211.19,176.004,207.001,170.834,207.001z"/>
	<path d="M264.367,207.001c-5.164,0-9.354,4.188-9.354,9.353l0,0c0,9.968-8.11,18.066-18.072,18.066s-18.072-8.104-18.072-18.066
		l0,0c0-5.164-4.189-9.353-9.354-9.353c-5.163,0-9.353,4.188-9.353,9.353c0,20.277,16.502,36.772,36.778,36.772
		c20.277,0,36.778-16.495,36.778-36.772C273.719,211.19,269.53,207.001,264.367,207.001z"/>
	<path d="M191.735,265.219c-12.065,0-12.065,18.706,0,18.706C203.804,283.925,203.804,265.219,191.735,265.219z"/>
	<path d="M300.488,67.967c-2.484,2.729-3.13,6.683-1.632,10.075c1.491,3.385,4.847,5.575,8.549,5.575h39.75
		c5.163,0,9.353-4.189,9.353-9.353s-4.189-9.353-9.353-9.353h-8.513h-10.071l5.036-5.522l20.471-22.476
		c2.491-2.728,3.137-6.683,1.639-10.074c-1.498-3.386-4.848-5.575-8.556-5.575h-39.75c-5.157,0-9.353,4.189-9.353,9.353
		s4.195,9.353,9.353,9.353h8.519h10.065l-5.035,5.523L300.488,67.967z"/>
	<path d="M332.164,137.445c1.498,3.386,4.853,5.574,8.561,5.574h22.999c5.164,0,9.353-4.189,9.353-9.353
		c0-5.161-4.188-9.353-9.353-9.353h-1.845l8.756-9.621c2.49-2.737,3.143-6.689,1.645-10.075s-4.854-5.575-8.556-5.575h-22.999
		c-5.163,0-9.353,4.189-9.353,9.353c0,5.161,4.189,9.353,9.353,9.353h1.84l-8.757,9.621
		C331.323,130.107,330.671,134.059,332.164,137.445z"/>
</g>
<g>
</g>
<g>
</g>
<g>
</g>
<g>
</g>
<g>
</g>
<g>
</g>
<g>
</g>
<g>
</g>
<g>
</g>
<g>
</g>
<g>
</g>
<g>
</g>
<g>
</g>
<g>
</g>
<g>
</g>
</svg>
